<svg width="307" height="223" viewBox="0 0 307 223" fill="none" xmlns="http://www.w3.org/2000/svg">
<mask id="mask0_180_1997" style="mask-type:alpha" maskUnits="userSpaceOnUse" x="0" y="0" width="307" height="223">
<path d="M0 2.99999C0 1.34314 1.34315 0 3 0H303.158C304.815 0 306.158 1.34315 306.158 3V220C306.158 221.657 304.815 223 303.158 223H3.00001C1.34316 223 0 221.657 0 220V2.99999Z" fill="#C4C4C4"/>
</mask>
<g mask="url(#mask0_180_1997)">
<path opacity="0.1" d="M256.411 48.071L126.637 86.2479C119.017 88.4898 114.664 96.4046 116.954 103.879L144.651 194.279C146.933 201.728 154.995 206.018 162.644 203.768L292.417 165.591C300.019 163.355 304.397 155.455 302.101 147.96L274.404 57.5601C272.122 50.1111 264.06 45.8209 256.411 48.071ZM257.27 57.6732L213.406 137.535L131.363 94.7126L257.27 57.6732ZM153.303 189.693L126.74 102.994L184.394 133.086L153.303 189.693ZM161.785 194.166L192.896 137.523L213.11 148.074C215.45 149.296 218.359 148.434 219.615 146.146L230.244 126.793L287.737 157.113L161.785 194.166ZM292.302 148.802L234.809 118.482L265.752 62.146L292.302 148.802Z" fill="#F2EDDC"/>
</g>
</svg>
